<svg xmlns="http://www.w3.org/2000/svg" viewBox="0 0 400 85.12"><defs><style>.cls-1{fill:#fff;}.cls-2{fill:#b1b3ba;}.cls-3{fill:#e4e7eb;}.cls-4{fill:#e60000;}.cls-5{fill:#d1d4d5;}</style></defs><g id="Capa_2" data-name="Capa 2"><g id="Capa_1-2" data-name="Capa 1"><path class="cls-1" d="M195.94,65.84h-2.18v-3l4.54-.66Zm-103-6.72V.67H104.8V59.12ZM113.15.67h17.28q12.87,0,18.63,7A17.21,17.21,0,0,1,152.9,19,17.28,17.28,0,0,1,148,31.41q-5.59,5.76-15.36,5.76H125v22H113.15ZM125,28h5.42c3.17,0,5.62-.9,7.35-2.67a9.26,9.26,0,0,0,2.59-6.68,8.24,8.24,0,0,0-2.18-6c-1.73-1.84-4.32-2.75-7.76-2.75H125ZM158.74.67h11.85V49.26h23.22v9.86H158.74Z"/><path class="cls-1" d="M216.69.67h13.52l23.21,58.45H240.06L235.14,46H211l-4.93,13.1H193.39Zm-1.92,35.65h16.86L223,12.45Zm85.09,11,.75,9.94a50.09,50.09,0,0,1-7.43,1.84,47,47,0,0,1-7.68.67q-13,0-21.37-7.44-9-8-9-22.13,0-13.86,8.69-22T287.66,0a41.19,41.19,0,0,1,6.69.5A43,43,0,0,1,300.61,2l-.5,10a31.08,31.08,0,0,0-11.6-2.18q-9.25,0-15.07,5.3t-5.81,14.91c0,6.85,2.18,12,6.51,15.53a20.94,20.94,0,0,0,13.52,4.34,29.31,29.31,0,0,0,6.69-.7A30.87,30.87,0,0,0,299.86,47.34ZM306.45.67h34.91V11h-23v13.2h21v9.6h-21v15h23V59.12H306.45Zm39.17,0h14L369,17l2.67,4.93L374.61,17,384.21.67h12.94L379.36,28.56,398.9,59.12h-14L373.68,40.58l-2.5-4.52-2.75,4.52L356.8,59.12H343.86l19.53-30.56ZM92,67.09h13.9v3.15h-5.15V84.91H97.15V70.24H92Zm15.56,0h10.64v3.15h-7v4h6.4V77.2h-6.4v4.56h7v3.15H107.58Zm26.21,14.24.23,3a15.54,15.54,0,0,1-4.61.77,9.43,9.43,0,0,1-6.53-2.27,8.56,8.56,0,0,1-2.75-6.75,8.77,8.77,0,0,1,2.65-6.72,10.17,10.17,0,0,1,7.28-2.5,11.81,11.81,0,0,1,2,.16,13.79,13.79,0,0,1,1.9.46l-.16,3.06a9.35,9.35,0,0,0-3.54-.66,6.56,6.56,0,0,0-4.59,1.62,5.83,5.83,0,0,0-1.77,4.54,5.73,5.73,0,0,0,2,4.74,6.41,6.41,0,0,0,4.13,1.33,8.22,8.22,0,0,0,2-.23,9.28,9.28,0,0,0,1.71-.57Zm2.53-14.24H141l6.16,11.23.94,2.42V67.09h3.62V84.91H147l-6.21-11.66-.89-2V84.91h-3.62Zm26.56-.21a8.52,8.52,0,0,1,6.24,2.32,9.11,9.11,0,0,1,2.5,6.8,9.1,9.1,0,0,1-2.5,6.77,9.51,9.51,0,0,1-12.48,0,9.11,9.11,0,0,1-2.5-6.8,9.14,9.14,0,0,1,2.5-6.78,8.5,8.5,0,0,1,6.24-2.34Zm0,2.54a4.4,4.4,0,0,0-3.15,1.17Q158,72.26,158,76t1.76,5.38a4.78,4.78,0,0,0,6.3,0q1.75-1.66,1.76-5.41T166,70.62A4.37,4.37,0,0,0,162.88,69.42Zm11.17-2.33h3.61V81.92h7.09v3h-10.7Zm20.57-.21a8.52,8.52,0,0,1,6.24,2.32,9.07,9.07,0,0,1,2.5,6.8,9.06,9.06,0,0,1-2.5,6.77,8.46,8.46,0,0,1-6.24,2.35,8.56,8.56,0,0,1-6.24-2.32,9.1,9.1,0,0,1-2.49-6.8,9.13,9.13,0,0,1,2.49-6.78A8.53,8.53,0,0,1,194.62,66.88Zm0,2.54a4.4,4.4,0,0,0-3.15,1.17q-1.75,1.66-1.76,5.41t1.76,5.38a4.79,4.79,0,0,0,6.31,0c1.16-1.11,1.76-2.91,1.76-5.41s-.6-4.27-1.76-5.38A4.4,4.4,0,0,0,194.62,69.42Zm25.6-1.77-.2,3.18a11,11,0,0,0-2.5-.8,13.94,13.94,0,0,0-2.59-.24,5.71,5.71,0,0,0-4.47,1.78A6.39,6.39,0,0,0,209,76a6.24,6.24,0,0,0,1.46,4.35,5.51,5.51,0,0,0,4.35,1.76,7.42,7.42,0,0,0,2.4-.35V77.5h-3.65V74.7h7.26v9.46a26.88,26.88,0,0,1-3.21.72,19.63,19.63,0,0,1-3,.24,9.29,9.29,0,0,1-7-2.58A8.89,8.89,0,0,1,205.15,76a8.59,8.59,0,0,1,2.91-7,10.54,10.54,0,0,1,7-2.16,16.47,16.47,0,0,1,5.2.77Zm3.62,17.26V67.09h3.62V84.91Zm19.7-3.58.22,3a14.49,14.49,0,0,1-2.27.56,14.76,14.76,0,0,1-2.35.21,9.39,9.39,0,0,1-6.53-2.27,8.56,8.56,0,0,1-2.75-6.75,8.77,8.77,0,0,1,2.65-6.72,10.15,10.15,0,0,1,7.28-2.5,11.61,11.61,0,0,1,2,.16,13.58,13.58,0,0,1,1.91.46l-.16,3.06A9.35,9.35,0,0,0,240,69.9a6.54,6.54,0,0,0-4.59,1.62,5.83,5.83,0,0,0-1.78,4.54,5.73,5.73,0,0,0,2,4.74,6.41,6.41,0,0,0,4.13,1.33,8.28,8.28,0,0,0,2-.23,8.56,8.56,0,0,0,1.73-.57Zm10.62-14.45a8.52,8.52,0,0,1,6.24,2.32,9.11,9.11,0,0,1,2.5,6.8,9.1,9.1,0,0,1-2.5,6.77,9.51,9.51,0,0,1-12.48,0,9.11,9.11,0,0,1-2.5-6.8,9.14,9.14,0,0,1,2.5-6.78A8.5,8.5,0,0,1,254.16,66.88Zm0,2.54A4.4,4.4,0,0,0,251,70.59q-1.75,1.66-1.76,5.41T251,81.38a4.78,4.78,0,0,0,6.3,0q1.76-1.66,1.76-5.41t-1.76-5.38A4.4,4.4,0,0,0,254.16,69.42Zm19.58-2.33h4.69l6.16,11.23,1,2.42V67.09h3.61V84.91h-4.67l-6.21-11.66-.89-2V84.91h-3.62Zm24.18,0h4.13l7.09,17.82h-4.08l-1.51-4h-7.36l-1.5,4h-3.87ZM297.34,78h5.16l-2.63-7.28Zm26.47,3.38.22,3a14.49,14.49,0,0,1-2.27.56,14.65,14.65,0,0,1-2.35.21,9.41,9.41,0,0,1-6.53-2.27,8.56,8.56,0,0,1-2.75-6.75,8.77,8.77,0,0,1,2.65-6.72,10.17,10.17,0,0,1,7.28-2.5,11.81,11.81,0,0,1,2,.16,13.79,13.79,0,0,1,1.9.46l-.14,3.06a9.35,9.35,0,0,0-3.54-.66,6.54,6.54,0,0,0-4.59,1.62A5.8,5.8,0,0,0,314,76.06a5.73,5.73,0,0,0,2,4.74,6.4,6.4,0,0,0,4.12,1.33,8.36,8.36,0,0,0,2-.23,9.81,9.81,0,0,0,1.71-.57Zm2.53,3.58V67.09H330V84.91Zm14.76-18a8.52,8.52,0,0,1,6.24,2.32,9.07,9.07,0,0,1,2.5,6.8,9.06,9.06,0,0,1-2.5,6.77,8.46,8.46,0,0,1-6.24,2.35,8.56,8.56,0,0,1-6.24-2.32,9.1,9.1,0,0,1-2.49-6.8,9.13,9.13,0,0,1,2.49-6.78A8.53,8.53,0,0,1,341.1,66.88Zm0,2.54A4.43,4.43,0,0,0,338,70.59q-1.76,1.66-1.76,5.41T338,81.38a4.79,4.79,0,0,0,6.31,0C345.42,80.3,346,78.5,346,76s-.6-4.27-1.76-5.38A4.45,4.45,0,0,0,341.1,69.42Zm11.16-2.33h4.68l6.16,11.23.95,2.42V67.09h3.61V84.91H363l-6.23-11.66-.89-2V84.91h-3.62V67.09Zm24.17,0h4.13l7.09,17.82h-4.08l-1.51-4H374.7l-1.5,4h-3.87ZM375.86,78H381l-2.63-7.28ZM389.3,67.09h3.61V81.92H400v3H389.3Z"/><path class="cls-2" d="M0,.4H27.3V28.58H0Z"/><path class="cls-3" d="M27.3.4H54.59V28.58H27.3Z"/><path class="cls-4" d="M54.61.4H81.9V28.58H54.61Z"/><path class="cls-5" d="M0,28.56H27.3V56.74H0Z"/><path class="cls-2" d="M27.3,28.56H54.59V56.74H27.3Z"/><path class="cls-5" d="M54.61,28.56H81.9V56.74H54.61Z"/><path class="cls-3" d="M0,56.74H27.3V84.91H0Z"/><path class="cls-5" d="M27.3,56.74H54.59V84.91H27.3Z"/><path class="cls-3" d="M54.61,56.74H81.9V84.91H54.61Z"/></g></g></svg>